<svg width="80" height="80" viewBox="0 0 80 80" fill="none" xmlns="http://www.w3.org/2000/svg">
<circle cx="40" cy="40" r="40" fill="#027DFC" fill-opacity="0.1"/>
<path d="M47.186 45.9763C46.0977 44.0991 44.3188 42.7214 42.229 42.1373C43.2151 41.6364 44.0038 40.8179 44.4678 39.8139C44.9319 38.8098 45.0442 37.6788 44.7867 36.6031C44.5291 35.5274 43.9168 34.5698 43.0484 33.8848C42.18 33.1997 41.1061 32.8271 40.0001 32.8271C38.894 32.8271 37.8201 33.1997 36.9517 33.8848C36.0833 34.5698 35.471 35.5274 35.2134 36.6031C34.9559 37.6788 35.0682 38.8098 35.5323 39.8139C35.9963 40.8179 36.785 41.6364 37.7711 42.1373C35.6813 42.7214 33.9024 44.0991 32.8141 45.9763C32.7854 46.0241 32.7666 46.0772 32.7589 46.1323C32.7512 46.1875 32.7546 46.2437 32.7691 46.2975C32.7835 46.3513 32.8086 46.4016 32.8429 46.4455C32.8773 46.4894 32.9201 46.5259 32.9688 46.5529C33.0168 46.5806 33.0698 46.5986 33.1248 46.6059C33.1797 46.6131 33.2356 46.6094 33.2891 46.5951C33.3427 46.5807 33.3929 46.5559 33.4368 46.5221C33.4808 46.4884 33.5177 46.4463 33.5454 46.3982C34.1995 45.2652 35.1404 44.3243 36.2734 43.6701C37.4064 43.0159 38.6917 42.6715 40.0001 42.6715C41.3084 42.6715 42.5937 43.0159 43.7267 43.6701C44.8597 44.3243 45.8006 45.2652 46.4547 46.3982C46.4918 46.4624 46.5451 46.5157 46.6093 46.5527C46.6735 46.5897 46.7463 46.6092 46.8204 46.6092C46.8942 46.608 46.9667 46.5887 47.0313 46.5529C47.08 46.5259 47.1228 46.4894 47.1572 46.4455C47.1915 46.4016 47.2166 46.3513 47.231 46.2975C47.2455 46.2437 47.2489 46.1875 47.2412 46.1323C47.2335 46.0772 47.2147 46.0241 47.186 45.9763ZM35.9219 37.7498C35.9219 36.9432 36.1611 36.1547 36.6092 35.4841C37.0573 34.8135 37.6942 34.2908 38.4394 33.9821C39.1846 33.6734 40.0046 33.5927 40.7957 33.75C41.5867 33.9074 42.3134 34.2958 42.8837 34.8661C43.4541 35.4365 43.8425 36.1631 43.9998 36.9542C44.1572 37.7453 44.0764 38.5652 43.7677 39.3104C43.4591 40.0556 42.9364 40.6925 42.2657 41.1406C41.5951 41.5887 40.8066 41.8279 40.0001 41.8279C38.9185 41.8279 37.8812 41.3983 37.1164 40.6335C36.3516 39.8687 35.9219 38.8314 35.9219 37.7498Z" fill="#027DFC" stroke="#027DFC" stroke-width="1.4"/>
<path d="M29 33.8889V29H33.8889" stroke="#027DFC" stroke-width="2"/>
<path d="M51 33.8889V29H46.1111" stroke="#027DFC" stroke-width="2"/>
<path d="M29 46.1111V51H33.8889" stroke="#027DFC" stroke-width="2"/>
<path d="M51 46.1111V51H46.1111" stroke="#027DFC" stroke-width="2"/>
</svg>
